<svg viewBox="0 0 24 24" xmlns="http://www.w3.org/2000/svg" width="50" height="50" style="background-color: transparent;">
  <path d="m21.707 11.293-8-8a.99991.99991 0 0 0 -1.707.707v3.54492a11.01525 11.01525 0 0 0 -10 10.95508v1.5a1 1 0 0 0 1.78418.62061 11.45625 11.45625 0 0 1 7.88672-4.04932c.0498-.00635.1748-.01611.3291-.02588v3.45459a.99991.99991 0 0 0 1.707.707l8-8a.99962.99962 0 0 0 0-1.414zm-7.707 6.29294v-2.08594a.99974.99974 0 0 0 -1-1c-.25488 0-1.2959.04932-1.56152.085a14.00507 14.00507 0 0 0 -7.38672 2.9482 9.01266 9.01266 0 0 1 8.94824-8.0332.99974.99974 0 0 0 1-1v-2.08594l5.58594 5.58594z"/>
</svg>
